<?xml version="1.0" encoding="utf-8"?>
<!-- Generator: Adobe Illustrator 23.0.5, SVG Export Plug-In . SVG Version: 6.00 Build 0)  -->
<svg version="1.1" id="Layer_1" xmlns="http://www.w3.org/2000/svg" xmlns:xlink="http://www.w3.org/1999/xlink" x="0px" y="0px"
	 viewBox="0 0 64 64" style="enable-background:new 0 0 64 64;" xml:space="preserve">
<style type="text/css">
	.st0{fill-rule:evenodd;clip-rule:evenodd;fill:#58595B;}
</style>
<polygon class="st0" points="30.7,61.3 8,49.2 8,38.7 22.4,47 30.7,37.9 "/>
<polygon class="st0" points="33.3,61.3 33.3,37.8 41.8,46.8 56,38.9 56,49.2 "/>
<polygon class="st0" points="5.8,34.3 0,31 8,22.2 0,14.7 23.2,2.7 31.8,9 40.7,2.7 64,14.8 56,22.2 64,31.4 58,34.7 58,34.7 
	42.3,43.4 33.4,34 53.1,23.4 32,11.8 10.9,23.4 30.7,33.9 30.7,34 21.9,43.6 8,35.6 7.6,35.4 5.8,34.3 "/>
</svg>
