<?xml version="1.0" encoding="utf-8"?>
<!-- Generator: Adobe Illustrator 23.0.5, SVG Export Plug-In . SVG Version: 6.00 Build 0)  -->
<svg version="1.1" id="Layer_1" xmlns="http://www.w3.org/2000/svg" xmlns:xlink="http://www.w3.org/1999/xlink" x="0px" y="0px"
	 viewBox="0 0 64 64" enable-background="new 0 0 64 64" xml:space="preserve">
<path fill="#58595B" d="M32,0C14.359985,0,0,14.359985,0,32s14.359985,32,32,32s32-14.359985,32-32S49.640015,0,32,0z M32,59.289978
	c-5.150024,0-10.169983-1.449951-14.52002-4.190002c0.220032-3.969971,2.070007-7.719971,5.100037-10.299988
	C23.190002,44.280029,23.969971,44,24.780029,44c0.669983,0,1.329956,0.179993,1.919983,0.539978
	c1.709961,1.040039,3.48999,1.559998,5.299988,1.559998c1.799988,0,3.590027-0.519958,5.289978-1.549988
	C37.880005,44.190002,38.539978,44,39.210022,44c0.809998,0,1.589966,0.280029,2.190002,0.789978
	c3.039978,2.580017,4.899963,6.330017,5.119995,10.309998C42.169983,57.840027,37.159973,59.289978,32,59.289978z
	 M49.929993,52.559998c-0.77002-4.130005-2.940002-7.869995-6.149963-10.590027
	c-1.26001-1.069946-2.890015-1.659973-4.570007-1.659973c-1.340027,0-2.670044,0.369995-3.830017,1.080017
	c-1.109985,0.669983-2.25,1.01001-3.380005,1.01001s-2.27002-0.350037-3.380005-1.02002
	c-1.159973-0.710022-2.48999-1.080017-3.830017-1.080017c-1.690002,0-3.320007,0.600037-4.589966,1.679993
	C17,44.700012,14.830017,48.440002,14.070007,52.549988C8.109985,47.349976,4.710022,39.890015,4.710022,32
	C4.710022,16.950012,16.950012,4.710022,32,4.710022S59.289978,16.950012,59.289978,32
	C59.289978,39.900024,55.880005,47.359985,49.929993,52.559998z"/>
<g>
	<path fill="#58595B" d="M32,8.349976c-6.73999,0-12.219971,5.480042-12.219971,12.220032
		c0,3.23999,1.269958,6.919983,3.409973,9.830017C25.630005,33.72998,28.76001,35.559998,32,35.559998
		s6.369995-1.830017,8.809998-5.159973c2.130005-2.910034,3.409973-6.590027,3.409973-9.830017
		C44.219971,13.830017,38.73999,8.349976,32,8.349976z M38.130005,28.340027C36.349976,30.780029,34.119995,32.190002,32,32.190002
		c-2.109985,0-4.330017-1.380005-6.090027-3.780029c-1.699951-2.319946-2.759949-5.329956-2.759949-7.839966
		c0-4.880005,3.969971-8.850037,8.849976-8.850037s8.849976,3.970032,8.849976,8.860046
		C40.849976,23.099976,39.830017,26,38.130005,28.340027z"/>
</g>
</svg>
