<?xml version="1.0" encoding="utf-8"?>
<!-- Generator: Adobe Illustrator 23.0.5, SVG Export Plug-In . SVG Version: 6.00 Build 0)  -->
<svg version="1.1" id="Layer_1" xmlns="http://www.w3.org/2000/svg" xmlns:xlink="http://www.w3.org/1999/xlink" x="0px" y="0px"
	 viewBox="0 0 64 64" style="enable-background:new 0 0 64 64;" xml:space="preserve">
<style type="text/css">
	.st0{fill:#58595B;}
	.st1{fill:#FFFFFF;}
</style>
<path class="st0" d="M32,64C14.36,64,0,49.64,0,32C0,14.36,14.36,0,32,0s32,14.36,32,32C64,49.64,49.64,64,32,64z"/>
<path class="st1" d="M39.21,40.31c1.68,0,3.31,0.59,4.57,1.66c3.21,2.72,5.38,6.46,6.15,10.59c5.95-5.2,9.36-12.66,9.36-20.56
	C59.29,16.95,47.05,4.71,32,4.71S4.71,16.95,4.71,32c0,7.89,3.4,15.35,9.36,20.55c0.76-4.11,2.93-7.85,6.13-10.57
	c1.27-1.08,2.9-1.68,4.59-1.68c1.34,0,2.67,0.37,3.83,1.08c1.11,0.67,2.25,1.02,3.38,1.02c1.13,0,2.27-0.34,3.38-1.01
	C36.54,40.68,37.87,40.31,39.21,40.31z"/>
<g>
	<path class="st0" d="M32,35.56c-3.24,0-6.37-1.83-8.81-5.16c-2.14-2.91-3.41-6.59-3.41-9.83c0-6.74,5.48-12.22,12.22-12.22
		s12.22,5.48,12.22,12.22c0,3.24-1.28,6.92-3.41,9.83C38.37,33.73,35.24,35.56,32,35.56z M32,11.72c-4.88,0-8.85,3.97-8.85,8.85
		c0,2.51,1.06,5.52,2.76,7.84c1.76,2.4,3.98,3.78,6.09,3.78c2.12,0,4.35-1.41,6.13-3.85c1.7-2.34,2.72-5.24,2.72-7.76
		C40.85,15.69,36.88,11.72,32,11.72z"/>
</g>
<path class="st1" d="M17.48,55.1c4.35,2.74,9.37,4.19,14.52,4.19c5.16,0,10.17-1.45,14.52-4.19c-0.22-3.98-2.08-7.73-5.12-10.31
	C40.8,44.28,40.02,44,39.21,44c-0.67,0-1.33,0.19-1.92,0.55c-1.7,1.03-3.49,1.55-5.29,1.55c-1.81,0-3.59-0.52-5.3-1.56
	c-0.59-0.36-1.25-0.54-1.92-0.54c-0.81,0-1.59,0.28-2.2,0.8C19.55,47.38,17.7,51.13,17.48,55.1z"/>
</svg>
