<?xml version="1.0" encoding="utf-8"?>
<!-- Generator: Adobe Illustrator 22.1.0, SVG Export Plug-In . SVG Version: 6.00 Build 0)  -->
<svg version="1.1" id="Layer_1" xmlns="http://www.w3.org/2000/svg" xmlns:xlink="http://www.w3.org/1999/xlink" x="0px" y="0px"
	 viewBox="0 0 24 24" style="enable-background:new 0 0 24 24;" xml:space="preserve">
<style type="text/css">
	.st0{fill:#FF0000;}
</style>
<g>
	<path class="st0" d="M19.5,21.3c-0.5,0-0.9-0.2-1.2-0.5L12,14.4l-6.3,6.4c-0.3,0.3-0.8,0.5-1.2,0.5s-0.9-0.2-1.2-0.5
		c-0.7-0.7-0.7-1.7,0-2.4L9.6,12L3.2,5.6c-0.7-0.7-0.7-1.7,0-2.4C3.6,2.9,4,2.7,4.5,2.7s0.9,0.2,1.2,0.5L12,9.6l6.3-6.4
		c0.3-0.3,0.8-0.5,1.2-0.5c0.5,0,0.9,0.2,1.2,0.5c0.7,0.7,0.7,1.7,0,2.4L14.4,12l6.3,6.4c0.7,0.7,0.7,1.7,0,2.4
		C20.4,21.1,20,21.3,19.5,21.3z"/>
</g>
</svg>
