<?xml version="1.0" encoding="utf-8"?>
<!-- Generator: Adobe Illustrator 23.0.5, SVG Export Plug-In . SVG Version: 6.00 Build 0)  -->
<svg version="1.1" id="Layer_1" xmlns="http://www.w3.org/2000/svg" xmlns:xlink="http://www.w3.org/1999/xlink" x="0px" y="0px"
	 viewBox="0 0 64 63.9" style="enable-background:new 0 0 64 63.9;" xml:space="preserve">
<style type="text/css">
	.st0{fill:#58595B;}
</style>
<path class="st0" d="M0,30.45c0.06-0.68,0.11-1.36,0.19-2.04c0.47-4.34,1.74-8.42,3.93-12.2c2.71-4.69,6.27-8.57,10.87-11.47
	c3.43-2.16,7.15-3.53,11.14-4.22c2.22-0.38,4.44-0.59,6.69-0.51c6.83,0.22,13.05,2.25,18.52,6.41c6.06,4.61,9.95,10.66,11.75,18.06
	c0.8,3.31,1.09,6.67,0.84,10.07c-0.39,5.24-2.02,10.07-4.88,14.49c-0.41,0.64-0.81,1.29-1.25,1.91c-0.27,0.38-0.56,0.75-0.91,1.06
	c-0.79,0.72-1.93,0.74-2.79,0.1c-0.82-0.62-1.13-1.77-0.7-2.69c0.14-0.3,0.33-0.59,0.53-0.85c2.79-3.78,4.57-7.98,5.29-12.62
	c0.44-2.86,0.34-5.73-0.12-8.58c-0.6-3.74-1.87-7.23-3.98-10.39c-4.1-6.14-9.75-10.11-16.94-11.81c-2.95-0.7-5.95-0.95-8.98-0.62
	c-4.86,0.54-9.33,2.19-13.28,5.07c-5.69,4.16-9.23,9.76-10.77,16.62c-0.68,3.03-0.75,6.1-0.38,9.18c0.62,5.14,2.53,9.74,5.81,13.74
	c3.07,3.75,6.78,6.63,11.32,8.4c2.7,1.05,5.49,1.63,8.37,1.83c3.5,0.25,6.93-0.13,10.26-1.25c2.22-0.75,4.29-1.78,6.25-3.05
	c0.26-0.16,0.51-0.33,0.77-0.49c0.58-0.36,1.21-0.41,1.85-0.23c1.42,0.38,2.06,2.06,1.21,3.3c-0.32,0.46-0.77,0.86-1.24,1.18
	c-3.11,2.07-6.51,3.47-10.14,4.32c-3.3,0.77-6.63,0.87-9.99,0.6c-3.86-0.31-7.56-1.24-11.06-2.91c-7.73-3.69-13.12-9.53-16.14-17.54
	c-1.07-2.82-1.67-5.76-1.91-8.76C0.09,34.1,0.04,33.64,0,33.19C0,32.28,0,31.36,0,30.45z"/>
<path class="st0" d="M15.81,23.69c1.02,0.6,1.98,1.16,2.92,1.73c3.84,2.32,7.68,4.64,11.53,6.96c0.22,0.13,0.31,0.27,0.31,0.53
	c-0.01,5.49-0.01,10.99-0.01,16.48c0,0.12,0,0.24,0,0.42c-0.2-0.07-0.37-0.11-0.51-0.19c-4.64-2.82-9.28-5.65-13.93-8.47
	c-0.25-0.15-0.32-0.31-0.32-0.6c0.01-5.48,0.01-10.97,0.01-16.45C15.81,23.99,15.81,23.88,15.81,23.69z"/>
<path class="st0" d="M33.64,49.76c0-0.2,0-0.31,0-0.43c0-5.5,0-11.01-0.01-16.51c0-0.27,0.07-0.42,0.33-0.55
	c4.56-2.34,9.12-4.69,13.68-7.04c0.09-0.05,0.19-0.09,0.32-0.15c0.01,0.13,0.02,0.24,0.02,0.34c0.02,5.55,0.04,11.1,0.07,16.64
	c0,0.24-0.12,0.32-0.29,0.41c-4.5,2.33-8.99,4.65-13.49,6.98C34.09,49.55,33.9,49.64,33.64,49.76z"/>
<path class="st0" d="M46.41,22.77c-1.9,0.99-3.73,1.96-5.56,2.91c-2.85,1.47-5.7,2.94-8.55,4.41c-0.16,0.08-0.27,0.11-0.44,0
	c-4.68-2.94-9.36-5.87-14.04-8.8c-0.04-0.02-0.07-0.05-0.12-0.1c0.1-0.06,0.17-0.11,0.26-0.15c4.43-2.29,8.87-4.57,13.3-6.86
	c0.23-0.12,0.4-0.11,0.62,0.02c4.18,2.48,8.36,4.96,12.54,7.43C45.06,22,45.7,22.36,46.41,22.77z"/>
</svg>
