<?xml version="1.0" encoding="utf-8"?>
<!-- Generator: Adobe Illustrator 22.1.0, SVG Export Plug-In . SVG Version: 6.00 Build 0)  -->
<svg version="1.1" id="Layer_1" xmlns="http://www.w3.org/2000/svg" xmlns:xlink="http://www.w3.org/1999/xlink" x="0px" y="0px"
	 viewBox="0 0 64 64" style="enable-background:new 0 0 64 64;" xml:space="preserve">
<style type="text/css">
	.st0{fill:#595857;}
</style>
<g>
	<path class="st0" d="M0,64c0-9.0609,0-18.0968,0-27.1586c1.5138,0,3.0211,0,4.5491,0c0-2.5274,0-5.029,0-7.5496
		c1.0244,0,2.0283,0,3.0619,0c0,2.4989,0,5.0064,0,7.5283c1.5369,0,3.0444,0,4.5743,0c0-12.2668,0-24.5274,0-36.8202
		c7.1185,2.3508,14.2071,4.6918,21.3298,7.0441c0-2.1702,0-4.299,0-6.4416c1.0277,0,2.0315,0,3.0636,0c0,0.0972,0,0.1895,0,0.2819
		c0,2.307,0.0027,4.614-0.005,6.921c-0.0006,0.1906,0.0522,0.2734,0.2374,0.3313c0.8708,0.2725,1.7364,0.5611,2.6041,0.8435
		c0.0524,0.0171,0.106,0.0306,0.1902,0.0547c0-2.817,0-5.6162,0-8.4309c1.0324,0,2.0362,0,3.0713,0c0,0.0921,0,0.184,0,0.276
		c0,2.9809,0.0021,5.9618-0.0049,8.9427c-0.0005,0.1916,0.0562,0.2722,0.2392,0.3312c1.367,0.4407,2.7293,0.896,4.096,1.3378
		c0.181,0.0585,0.2386,0.1404,0.2376,0.3327c-0.009,1.7756-0.0053,3.5513-0.0053,5.3592c5.5869,0,11.166,0,16.7607,0
		C64,32.805,64,48.3942,64,64C42.6663,64,21.3436,64,0,64z M44.1852,60.9761c0-0.1067,0-0.185,0-0.2633
		c0-15.57-0.0004-31.1399,0.0047-46.7099c0.0001-0.1922-0.059-0.2771-0.2401-0.3356c-1.1476-0.3706-2.2918-0.7513-3.437-1.129
		c-8.3245-2.7457-16.649-5.4915-24.9738-8.2366c-0.0869-0.0287-0.1772-0.0472-0.2724-0.0722c0,10.8797,0,21.7349,0,32.6181
		c3.5585,0,7.0978,0,10.6552,0c0,8.0561,0,16.0842,0,24.1263c2.5343,0,5.0503,0,7.5659,0c0.0111-0.0339,0.0244-0.0556,0.0245-0.0774
		c0.0018-1.5062,0.0042-3.0125-0.0026-4.5187c-0.0003-0.061-0.0774-0.1594-0.1374-0.1767
		c-1.2331-0.3558-2.2561-1.0271-3.0597-2.0146c-1.1091-1.3628-1.5515-2.924-1.2955-4.6542c0.2004-1.3541,0.8101-2.519,1.8216-3.4624
		c1.5603-1.4553,3.4118-1.9888,5.4958-1.5521c3.1852,0.6674,5.324,3.7478,4.7086,6.9733c-0.3853,2.0197-1.5606,3.456-3.4059,4.363
		c-0.3377,0.166-0.7011,0.2808-1.0381,0.4135c0,1.5764,0,3.1411,0,4.7083C39.1293,60.9761,41.6393,60.9761,44.1852,60.9761z
		 M57.8968,23.2574c-2.5434,0-5.0586,0-7.5782,0c0,1.5033,0,2.9894,0,4.4786c2.5351,0,5.0561,0,7.5782,0
		C57.8968,26.2351,57.8968,24.7546,57.8968,23.2574z M50.3143,35.2983c2.5433,0,5.0591,0,7.5734,0c0-1.5082,0-3.0006,0-4.4905
		c-2.5343,0-5.0502,0-7.5734,0C50.3143,32.3103,50.3143,33.7974,50.3143,35.2983z M57.8907,42.8662c0-1.51,0-3.003,0-4.5018
		c-2.5313,0-5.0472,0-7.5705,0c0,1.5066,0,2.9994,0,4.5018C52.846,42.8662,55.3561,42.8662,57.8907,42.8662z M50.3178,50.3915
		c2.5392,0,5.0539,0,7.5742,0c0-1.5028,0-2.988,0-4.4849c-2.5297,0-5.0454,0-7.5742,0
		C50.3178,47.4053,50.3178,48.8907,50.3178,50.3915z M57.8931,57.9478c0-1.5156,0-3.0029,0-4.4937c-2.5347,0-5.0565,0-7.5752,0
		c0,1.5069,0,2.9943,0,4.4937C52.8472,57.9478,55.3631,57.9478,57.8931,57.9478z M10.6349,45.8658c0-0.9875,0-1.9783,0-2.9802
		c-1.5108,0-3.0168,0-4.5334,0c0,0.9976,0,1.9829,0,2.9802C7.6141,45.8658,9.1143,45.8658,10.6349,45.8658z M15.2607,45.8649
		c1.5135,0,3.0138,0,4.5291,0c0-0.9954,0-1.9819,0-2.9722c-1.5191,0-3.0249,0-4.5291,0
		C15.2607,43.8921,15.2607,44.8721,15.2607,45.8649z M6.1046,48.9229c0,1.008,0,1.9934,0,2.9799c1.5214,0,3.0273,0,4.5348,0
		c0-1.0013,0-1.9864,0-2.9799C9.1233,48.9229,7.6229,48.9229,6.1046,48.9229z M19.792,48.9283c-1.5209,0-3.0217,0-4.5282,0
		c0,0.9995,0,1.9849,0,2.9761c1.5162,0,3.0159,0,4.5282,0C19.792,50.9102,19.792,49.9303,19.792,48.9283z M10.6385,57.9514
		c0-1.0108,0-1.9959,0-2.9795c-1.5228,0-3.0288,0-4.533,0c0,1.002,0,1.9874,0,2.9795C7.6222,57.9514,9.1226,57.9514,10.6385,57.9514
		z M19.7894,54.974c-1.5181,0-3.0241,0-4.5414,0c0,0.9615-0.0001,1.9044,0.0005,2.8473c0,0.0378,0.0077,0.0755,0.0131,0.1252
		c1.5117,0,3.0121,0,4.5278,0C19.7894,56.9528,19.7894,55.9663,19.7894,54.974z"/>
	<path class="st0" d="M18.307,18.7159c7.612,0,15.204,0,22.815,0c0,0.9978,0,1.9916,0,3.0034c-7.5981,0-15.2015,0-22.815,0
		C18.307,20.7159,18.307,19.7174,18.307,18.7159z"/>
	<path class="st0" d="M18.2988,33.8019c0-1.0096,0-1.9975,0-2.9967c7.6096,0,15.2072,0,22.8236,0c0,0.9914,0,1.9853,0,2.9967
		C33.5235,33.8019,25.9199,33.8019,18.2988,33.8019z"/>
	<path class="st0" d="M18.2993,24.7626c4.0588,0,8.1028,0,12.1641,0c0,0.9963,0,1.9897,0,2.9994c-4.0512,0-8.1015,0-12.1641,0
		C18.2993,26.7645,18.2993,25.777,18.2993,24.7626z"/>
	<path class="st0" d="M41.132,36.8526c0,1.0017,0,1.9895,0,2.9925c-4.0592,0-8.109,0-12.1712,0c0-1.0004,0-1.9876,0-2.9925
		C33.0107,36.8526,37.0599,36.8526,41.132,36.8526z"/>
	<path class="st0" d="M18.2962,15.6856c0-1.0099,0-1.9984,0-3.0009c3.0442,0,6.0792,0,9.1265,0
		c0.0058,0.0679,0.0155,0.1295,0.0156,0.1912c0.001,0.8638-0.0052,1.7277,0.0051,2.5913c0.0023,0.1965-0.0683,0.2369-0.2503,0.2366
		c-2.8958-0.0047-5.7917-0.0032-8.6875-0.0039C18.4365,15.6998,18.3674,15.6906,18.2962,15.6856z"/>
	<path class="st0" d="M33.5272,24.7592c2.5452,0,5.0627,0,7.5972,0c0,0.9999,0,1.9934,0,3.0006c-2.5288,0-5.058,0-7.5972,0
		C33.5272,26.7548,33.5272,25.768,33.5272,24.7592z"/>
</g>
</svg>
