<?xml version="1.0" encoding="utf-8"?>
<!-- Generator: Adobe Illustrator 23.0.5, SVG Export Plug-In . SVG Version: 6.00 Build 0)  -->
<svg version="1.1" id="Layer_1" xmlns="http://www.w3.org/2000/svg" xmlns:xlink="http://www.w3.org/1999/xlink" x="0px" y="0px"
	 viewBox="0 0 64 64" enable-background="new 0 0 64 64" xml:space="preserve">
<path fill="#58595B" d="M50.016407,18.164459c-0.292549-1.279947-1.048332-2.108866-2.35268-2.291747
	c-1.304352-0.195008-2.230812,0.438827-2.937859,1.548167c-0.109669-0.195084-0.195007-0.341358-0.292549-0.475431
	c-0.902058-1.523764-1.804111-3.023123-2.706169-4.546886c-0.316956-0.536367-0.731453-0.963066-1.316551-1.231213
	c-0.999599-0.451028-1.986996-0.914258-2.998795-1.353084c-0.560696-0.243817-1.084862-0.524166-1.523762-0.975194
	c-0.255947-0.280423-0.560699-0.52424-0.865452-0.804588c-1.011799,0.92646-2.011398,1.828516-3.023197,2.754976
	c-0.987394-0.92646-1.962589-1.840718-2.925581-2.742774c-0.048807,0.012201-0.085339,0.012201-0.097542,0.036531
	c-0.09754,0.073212-0.195007,0.14635-0.280348,0.219487c-0.865524,0.841121-1.865122,1.474956-2.998793,1.901653
	c-0.548571,0.207211-1.084938,0.475358-1.633432,0.719175c-0.780186,0.35356-1.401892,0.853322-1.840719,1.621305
	c-0.865524,1.511561-1.791985,3.010921-2.681837,4.510354c-0.073139,0.097467-0.146276,0.207211-0.219414,0.329082
	c-1.414093-2.486754-4.839511-1.79191-5.32707,0.792387H7.472906c-0.012202,0.158478-0.02433,0.292551-0.02433,0.426624
	c0,9.32546,0,18.66305-0.012202,27.988512c1.206809,1.316551,2.511159,2.535561,3.912977,3.632626V22.053106h41.348896V50.17569
	c1.389614-1.072735,2.681839-2.279545,3.864243-3.583893V18.164459H50.016407z M30.963264,18.152256
	c0.329157-2.230736,0.658239-4.449344,0.987396-6.65575H32.0238c0.341358,2.206407,0.670441,4.425014,0.999596,6.65575H30.963264z"
	/>
<path fill="#58595B" d="M41.85812,30.409908c0.782375,0.535568,1.377682,1.516335,2.578545,0.944622
	c0.007931,0.175182,0.018639,0.301582,0.018665,0.427982c0.000984,5.41193,0.001244,10.823853,0.000843,16.235779
	c-0.000042,0.586834-0.061432,0.650574-0.630032,0.65102c-1.605011,0.001259-3.210022,0.001118-4.815029-0.000202
	c-0.56012-0.000462-0.630798-0.068142-0.630898-0.608822c-0.000816-4.509945-0.00148-9.019886,0.003983-13.529827
	c0.000179-0.148762,0.018837-0.340084,0.108624-0.439682C39.601917,32.860462,40.725864,31.643522,41.85812,30.409908z"/>
<path fill="#58595B" d="M26.011518,42.452057c-0.00025,1.844204,0.000597,3.688404-0.000721,5.532612
	c-0.000446,0.624825-0.068661,0.693672-0.678226,0.694153c-1.592125,0.001263-3.184252,0.002102-4.776375,0.000717
	c-0.559975-0.000484-0.638222-0.081867-0.63839-0.651119c-0.0007-2.348358-0.006588-4.696758,0.01037-7.044991
	c0.001513-0.209427,0.101519-0.467098,0.244442-0.618881c1.273182-1.352139,2.57291-2.679272,3.847282-4.030308
	c0.219357-0.232559,0.44953-0.337608,0.734226-0.258678c0.381311,0.105728,0.759392,0.237118,1.117094,0.40411
	c0.089579,0.041821,0.134136,0.261707,0.134779,0.400055C26.014614,38.737133,26.01177,40.594604,26.011518,42.452057z"/>
<path fill="#58595B" d="M40.621513,26.464792c-0.586906-0.491724-1.161922-0.960842-1.718742-1.450644
	c-0.111801-0.098339-0.2356-0.297157-0.20533-0.409698c0.028324-0.10531,0.248367-0.210173,0.393288-0.225058
	c1.371185-0.140816,2.744209-0.263807,4.117001-0.38866c0.511196-0.046492,0.569-0.004841,0.618698,0.511992
	c0.129398,1.345745,0.256924,2.691818,0.362152,4.03956c0.014122,0.180956-0.104633,0.37229-0.161854,0.558817
	c-0.17189-0.071474-0.370697-0.109034-0.510921-0.220379c-0.559769-0.444494-1.101318-0.911947-1.669331-1.387409
	c-0.972523,1.059643-1.931576,2.103651-2.889576,3.148632c-1.657936,1.808487-3.314346,3.618366-4.973312,5.425903
	c-0.490685,0.534634-0.648415,0.569016-1.324604,0.319855c-2.706974-0.997467-5.415634-1.990417-8.118488-2.998928
	c-0.268023-0.100006-0.422201-0.05378-0.612724,0.146404c-1.545193,1.623489-3.102436,3.2355-4.653624,4.853298
	c-0.272093,0.283775-0.577602,0.426178-0.960522,0.250664c-0.338751-0.155266-0.513695-0.434818-0.452959-0.800377
	c0.03027-0.18219,0.136589-0.378254,0.26564-0.513538c1.739237-1.823299,3.489687-3.635899,5.234308-5.454073
	c0.310596-0.323694,0.654781-0.334486,1.053925-0.187494c2.371479,0.873344,4.746368,1.737427,7.120127,2.604588
	c0.397753,0.145298,0.790462,0.308136,1.196381,0.425148c0.12738,0.03672,0.346344,0.001652,0.428905-0.087784
	c2.473736-2.679733,4.935623-5.370398,7.39888-8.059797C40.576298,26.546741,40.586834,26.521326,40.621513,26.464792z"/>
<path fill="#58595B" d="M29.40369,44.164234c0-1.313465-0.001657-2.626938,0.00087-3.940395
	c0.000921-0.477955,0.106329-0.584091,0.586321-0.584869c1.645164-0.002674,3.290339-0.003078,4.935503-0.000011
	c0.480858,0.000896,0.57872,0.101055,0.579281,0.590492c0.002975,2.613667,0.003777,5.227341,0.002449,7.841007
	c-0.000256,0.495987-0.112919,0.606915-0.609512,0.60767c-1.631893,0.002487-3.263792,0.003235-4.895685,0.000412
	c-0.497549-0.000862-0.600449-0.108997-0.601173-0.613705c-0.001869-1.300198-0.000626-2.600403-0.000626-3.9006
	C29.401976,44.164234,29.402834,44.164234,29.40369,44.164234z"/>
<path fill="#58595B" d="M20.757795,24.651949c0,0.390476,0,0.754818,0,1.144836c-2.237484,0-4.457836,0-6.712048,0
	c0-0.368555,0-0.742819,0-1.144836C16.26897,24.651949,18.489466,24.651949,20.757795,24.651949z"/>
<path fill="#58595B" d="M14.030775,28.178173c0-0.382959,0-0.747869,0-1.138809c1.268871,0,2.5184,0,3.793106,0
	c0,0.377487,0,0.741909,0,1.138809C16.575348,28.178173,15.325993,28.178173,14.030775,28.178173z"/>
<path fill="#58595B" d="M31.999401,0.074461c-17.599976,0-31.919983,14.320007-31.919983,31.929991
	c0,9.960022,4.590027,18.880005,11.77002,24.730042c0.539978,0.449951,1.109985,0.879944,1.679993,1.289978
	c3.349976,2.390015,7.179993,4.140015,11.309998,5.089966c2.25,0.52002,4.580017,0.800049,6.97998,0.810059h0.51001
	c2.400024-0.030029,4.73999-0.320007,6.98999-0.850037c4.080017-0.960022,7.860046-2.710022,11.179993-5.070007
	c0.559998-0.399963,1.110046-0.820007,1.650024-1.26001c7.179993-5.849976,11.780029-14.769958,11.780029-24.73999
	C63.929455,14.394468,49.599438,0.074461,31.999401,0.074461z M52.149426,50.454464
	c-0.969971,1.070007-2.030029,2.059998-3.169983,2.940002c-0.630005,0.51001-1.280029,0.98999-1.950012,1.419983H16.979443
	c-0.660034-0.419983-1.299988-0.889954-1.920044-1.380005c-1.149963-0.899963-2.219971-1.899963-3.209961-2.97998
	c-4.450012-4.859985-7.169983-11.330017-7.169983-18.450012c0-15.099974,12.22998-27.329954,27.319946-27.329954
	c15.090027,0,27.330017,12.22998,27.330017,27.329954C59.329418,39.124447,56.609447,45.594479,52.149426,50.454464z"/>
</svg>
