<?xml version="1.0" encoding="utf-8"?>
<!-- Generator: Adobe Illustrator 22.1.0, SVG Export Plug-In . SVG Version: 6.00 Build 0)  -->
<svg version="1.1" id="Layer_1" xmlns="http://www.w3.org/2000/svg" xmlns:xlink="http://www.w3.org/1999/xlink" x="0px" y="0px"
	 viewBox="0 0 64 64" style="enable-background:new 0 0 64 64;" xml:space="preserve">
<style type="text/css">
	.st0{fill:#333333;}
</style>
<g>
	<g>
		<g>
			<path class="st0" d="M49.1714,64c-4.9912-0.0842-9.5296-0.8848-13.9046-2.5889c-0.5946-0.2316-0.735-0.5044-0.6235-1.1125
				c0.6066-3.31,1.6791-6.4073,4.2771-8.7017c0.8819-0.7789,2.0084-1.2876,3.0455-1.8809c0.4878-0.2791,0.9653-0.1945,1.4864,0.0992
				c2.3122,1.303,4.7869,1.9555,7.4205,1.3105c1.0757-0.2634,2.0905-0.8189,3.0905-1.3252
				c0.3765-0.1907,0.6529-0.2805,1.0565-0.1255c4.8469,1.861,7.5504,5.5092,8.7049,10.438
				c0.0407,0.1737-0.1769,0.5262-0.3617,0.6169c-3.6215,1.7785-7.457,2.7913-11.4741,3.1176
				C50.8828,63.9291,49.8726,63.9617,49.1714,64z"/>
			<path class="st0" d="M57.1912,41.2929c0.0005,4.5-3.676,8.1884-8.1731,8.1995c-4.5373,0.0112-8.2232-3.6731-8.2164-8.2129
				c0.0068-4.5287,3.7081-8.2169,8.2305-8.2014C53.5131,33.0934,57.1906,36.7962,57.1912,41.2929z"/>
		</g>
		<g>
			<path class="st0" d="M14.7524,64c-4.9673-0.0719-9.5548-0.8882-13.9678-2.6228c-0.3626-0.1425-0.6942-0.2474-0.6025-0.7961
				c0.4697-2.8115,1.3178-5.4661,3.1111-7.7385c1.1571-1.4662,2.5859-2.5689,4.374-3.1796
				c0.4607-0.1573,0.8411-0.1335,1.2898,0.1131c2.9154,1.6024,5.9437,2.1834,9.1341,0.8444
				c0.4629-0.1943,0.9415-0.4074,1.3254-0.7194c0.4589-0.3731,0.858-0.3711,1.3761-0.1628
				c4.7029,1.8911,7.3473,5.4742,8.5206,10.2856c0.0902,0.3698-0.0106,0.5551-0.3613,0.724
				c-3.7248,1.7934-7.651,2.8179-11.7684,3.1217C16.2962,63.9349,15.4066,63.9656,14.7524,64z"/>
			<path class="st0" d="M22.756,41.2967c-0.0066,4.5201-3.6754,8.2008-8.1578,8.1843c-4.5812-0.0168-8.2252-3.6544-8.225-8.2105
				c0.0002-4.5557,3.7037-8.1932,8.3245-8.1762C19.127,33.1107,22.7626,36.8112,22.756,41.2967z"/>
		</g>
	</g>
	<g>
		<path class="st0" d="M0.657,32.7876c1.1062-2.7571,2.1633-5.352,3.1735-7.9651c0.1128-0.2917,0.0931-0.7992-0.0903-1.0168
			C-1.5457,17.5371-0.2621,8.9899,6.8446,3.9735c7.0899-5.0045,17.2982-5.0742,24.4751-0.2128
			c0.5148,0.3487,0.8407,0.3705,1.3707,0.0079c7.6964-5.2663,19.0656-4.692,25.9114,1.3388
			c3.2523,2.8651,5.0908,6.4354,4.8821,10.8693c-0.1339,2.8448-1.1996,5.3566-3.018,7.5297
			c-0.4438,0.5303-0.4737,0.9451-0.2167,1.5593c1.0189,2.4346,1.982,4.8925,2.9637,7.3427
			c0.0379,0.0947,0.0551,0.1977,0.1148,0.4182c-2.0435-0.4072-3.998-0.7931-5.951-1.1868
			c-2.7806-0.5605-5.5499-1.1863-8.3455-1.6568c-0.9317-0.1568-1.9365,0.0213-2.8956,0.1433
			c-4.9203,0.626-9.5359-0.107-13.7208-2.9301c-0.1953-0.1317-0.6442-0.1094-0.8495,0.0283
			c-4.1385,2.7751-8.7078,3.5512-13.561,2.8972c-1.6235-0.2188-3.1829-0.1775-4.7893,0.1752
			c-3.8831,0.8524-7.79,1.5965-11.6881,2.3804C1.2886,32.7253,1.0434,32.7397,0.657,32.7876z M7.2947,27.3104
			c2.2082-0.4405,4.2098-0.9048,6.2348-1.219c1.1921-0.185,2.4339-0.2679,3.6309-0.1563c2.1929,0.2045,4.3712,0.4724,6.5657,0.0769
			c1.8741-0.3378,3.6375-0.9537,5.2489-2.0162c-3.7916-5.6644-4.0271-11.271,0.0009-16.9079
			c-0.4434-0.2662-0.834-0.5264-1.2467-0.7446c-3.7616-1.9892-7.7583-2.463-11.9078-1.7474
			c-3.2891,0.5672-6.1969,1.9351-8.538,4.3752c-2.7824,2.9002-3.5011,6.8219-1.6688,10.2057
			c0.729,1.3463,1.8473,2.4886,2.8389,3.6818c0.3127,0.3763,0.3724,0.6544,0.1807,1.0967
			C8.1834,24.9945,7.7897,26.0585,7.2947,27.3104z M35.0538,7.0965c4.0374,5.6731,3.7676,11.2833-0.0135,16.9177
			c0.4191,0.238,0.7697,0.4578,1.1377,0.6428c2.9872,1.5018,6.1522,1.8743,9.4241,1.3879c1.9491-0.2897,3.858-0.3156,5.786,0.1892
			c1.4776,0.3868,2.9963,0.6172,4.4978,0.9117c0.2356,0.0462,0.4769,0.0636,0.824,0.1083
			c-0.4708-1.1779-0.8836-2.2622-1.3405-3.3275c-0.1753-0.4087-0.1682-0.696,0.1673-1.0268
			c0.5338-0.5264,1.0219-1.1008,1.5126-1.6692c1.2461-1.4435,2.0922-3.0808,2.287-4.9994c0.3641-3.587-1.226-6.3176-3.9202-8.4595
			c-3.7352-2.9696-8.0897-3.8091-12.737-3.3674C39.9559,4.6631,37.4153,5.5185,35.0538,7.0965z M32.0033,20.9707
			c2.4553-2.7041,2.448-8.3309-0.014-10.9031C29.1613,13.5077,29.9786,18.4818,32.0033,20.9707z"/>
		<path class="st0" d="M21.6125,15.7788c0.2643-1.1636,0.5121-2.2453,0.7549-3.3282c0.116-0.5174,0.2917-1.0599,0.9397-0.9267
			c0.6945,0.1428,0.6394,0.7008,0.5016,1.2699c-0.2812,1.1619-0.5449,2.329-0.7732,3.5022
			c-0.1352,0.6947-0.4777,0.9671-1.2022,0.9575c-2.4769-0.0328-4.9545-0.0098-7.4319-0.0082c-0.3003,0.0002-0.6007,0-0.9011,0
			c-0.0247,0.0976-0.0494,0.1952-0.0741,0.2928c0.2681,0.0868,0.5356,0.2468,0.8044,0.249c2.4216,0.0195,4.8434,0.014,7.2651,0.0092
			c0.5552-0.0011,1.1453-0.0064,1.1197,0.7557c-0.0224,0.6665-0.5529,0.7345-1.0937,0.7335
			c-2.5887-0.0047-5.178-0.0314-7.7658,0.0151c-0.873,0.0157-1.3212-0.366-1.6386-1.1117
			c-0.7945-1.8667-1.6564-3.7054-2.4192-5.5847c-0.2657-0.6546-0.6231-0.8981-1.2934-0.8087
			c-0.3005,0.0401-0.6593,0.0986-0.9052-0.0243c-0.2997-0.1497-0.5085-0.4815-0.7566-0.7346
			c0.2607-0.2398,0.4979-0.6454,0.7869-0.6865c0.7095-0.1008,1.4573-0.1187,2.1604,0.0015
			c0.3529,0.0604,0.7716,0.4319,0.9367,0.7715c0.6558,1.3491,1.2042,2.7501,1.8419,4.1086
			c0.1113,0.2371,0.4533,0.5018,0.7017,0.5152c1.0826,0.0586,2.1699,0.0306,3.2556,0.0314
			C18.1223,15.7797,19.8189,15.7788,21.6125,15.7788z"/>
		<path class="st0" d="M14.0191,19.4891c0.7046,0.0232,1.2486,0.6162,1.2038,1.3123c-0.0423,0.658-0.6142,1.1854-1.2683,1.1698
			c-0.6825-0.0163-1.2504-0.6346-1.2093-1.3164C12.7848,19.9982,13.3647,19.4675,14.0191,19.4891z"/>
		<path class="st0" d="M21.1314,20.7465c-0.016,0.6905-0.6158,1.253-1.301,1.22c-0.654-0.0315-1.1842-0.5985-1.1762-1.2579
			c0.0084-0.6958,0.5988-1.2473,1.2988-1.2133C20.6201,19.5276,21.1467,20.0868,21.1314,20.7465z"/>
		<path class="st0" d="M21.7504,13.9412c-0.4976,0.3291-0.7864,0.6676-1.0642,0.6588c-0.2386-0.0075-0.6797-0.4501-0.6473-0.6319
			c0.0519-0.2911,0.3988-0.6993,0.6631-0.7336C20.9523,13.202,21.2567,13.587,21.7504,13.9412z"/>
		<path class="st0" d="M14.8125,13.935c-0.4945,0.3296-0.7814,0.667-1.0645,0.6639c-0.2331-0.0026-0.6742-0.4445-0.6434-0.6281
			c0.0484-0.2891,0.3949-0.7024,0.6538-0.7327C14.0149,13.2081,14.3192,13.5873,14.8125,13.935z"/>
		<path class="st0" d="M13.3872,11.9684c-0.5133,0.3482-0.796,0.6879-1.0739,0.684c-0.2445-0.0034-0.4836-0.3911-0.7252-0.6092
			c0.2329-0.2537,0.4391-0.67,0.7064-0.7137C12.5459,11.2884,12.8615,11.6406,13.3872,11.9684z"/>
		<path class="st0" d="M14.8371,13.0285c-0.3485-0.4766-0.7242-0.7726-0.6822-0.9866c0.0559-0.2848,0.4066-0.6404,0.6898-0.7046
			c0.1761-0.0399,0.6401,0.3947,0.6512,0.6315C15.5086,12.2427,15.1661,12.5333,14.8371,13.0285z"/>
		<path class="st0" d="M17.9593,12.114c-0.2815,0.1945-0.5633,0.5383-0.8443,0.5376c-0.2359-0.0006-0.6497-0.3976-0.6565-0.6288
			c-0.007-0.2398,0.3639-0.6693,0.5998-0.6913c0.2795-0.0261,0.5914,0.2947,0.8893,0.4651
			C17.9516,11.9024,17.9554,12.0082,17.9593,12.114z"/>
		<path class="st0" d="M18.3765,12.0058c0.496-0.3386,0.7799-0.6819,1.0554-0.6753c0.2406,0.0057,0.4718,0.4054,0.7072,0.631
			c-0.2445,0.245-0.4591,0.6289-0.7431,0.6899C19.1778,12.6982,18.8722,12.3384,18.3765,12.0058z"/>
		<path class="st0" d="M17.1126,13.9049c-0.4886,0.3465-0.7644,0.6909-1.0449,0.6947c-0.2308,0.0032-0.6763-0.4242-0.6523-0.613
			c0.0367-0.2879,0.37-0.71,0.6268-0.7489C16.294,13.1995,16.6075,13.5689,17.1126,13.9049z"/>
		<path class="st0" d="M18.3165,12.8936c0.3033,0.498,0.6314,0.8005,0.6145,1.0821c-0.0141,0.2343-0.4337,0.4442-0.6738,0.6649
			c-0.2321-0.2564-0.6112-0.4928-0.6499-0.7757C17.5762,13.6388,17.9592,13.3558,18.3165,12.8936z"/>
	</g>
</g>
</svg>
