<?xml version="1.0" encoding="utf-8"?>
<!-- Generator: Adobe Illustrator 23.0.5, SVG Export Plug-In . SVG Version: 6.00 Build 0)  -->
<svg version="1.1" id="Layer_1" xmlns="http://www.w3.org/2000/svg" xmlns:xlink="http://www.w3.org/1999/xlink" x="0px" y="0px"
	 viewBox="0 0 64 64" enable-background="new 0 0 64 64" xml:space="preserve">
<g>
	<path fill="#333333" d="M17.01646,27.916431c2.1563-0.857008,4.182119-1.669346,6.214483-2.46497
		c0.523397-0.204895,1.055641-0.444181,1.603998-0.518223c2.090376-0.282248,3.728254,1.257866,3.649197,3.374363
		c-0.01042,0.278942-0.025925,0.557693-0.048447,1.035423c0.909559,0,1.773911-0.005524,2.63817,0.001133
		c1.877359,0.014465,2.636007,0.760138,2.63777,2.643478c0.007164,7.66748,0.021408,15.335072-0.018528,23.00235
		c-0.00526,1.009708,0.262981,1.309708,1.290249,1.304264c7.737938-0.041008,15.476204-0.025688,23.214352-0.017784
		c1.591656,0.001625,2.498226,0.771927,2.521503,2.084248c0.020466,1.15382-0.750156,2.031952-1.897652,2.151749
		c-0.210041,0.021931-0.426086,0.033367-0.635075,0.010513c-1.080139-0.118149-1.868481,0.031265-2.396912,1.251087
		c-0.524002,1.209602-1.766605,1.708271-3.098537,1.635101c-1.368515-0.075165-2.472977-0.72393-3.002983-2.011398
		c-0.301731-0.732967-0.712502-0.898338-1.429253-0.884258c-2.013264,0.039562-4.028175,0.035454-6.041634,0.001343
		c-0.635868-0.010773-1.008526,0.129406-1.280304,0.777569c-0.590073,1.407269-1.74929,2.130779-3.257427,2.116882
		c-1.506878-0.013882-2.646183-0.760517-3.226212-2.169987c-0.232265-0.564411-0.529716-0.758118-1.103012-0.719997
		c-0.562805,0.037411-1.13055,0.020367-1.695398,0.003258c-1.374571-0.041645-2.147039-0.791908-2.234903-2.167595
		c-0.02248-0.352028-0.009264-0.706448-0.009283-1.059772c-0.000418-7.490818-0.01668-14.981716,0.019623-22.472363
		c0.004679-0.966209-0.253654-1.316689-1.243765-1.245621c-1.160036,0.083263-2.335558,0.082867-3.494713-0.006485
		c-0.631887-0.048706-1.23563-0.393509-1.867832-0.533634c-0.367922-0.081543-0.809059-0.134312-1.145124-0.008049
		c-1.883867,0.707771-3.745506,1.474667-5.615231,2.220135c-2.79652,1.114975-4.684886,0.034607-5.043642-2.928391
		c-0.360811-2.979973-0.681474-5.964912-1.003907-8.949383c-0.159692-1.478127,0.358799-2.653643,1.705522-3.355289
		c1.994787-1.039293,4.314888,0.166014,4.635002,2.416792C16.609119,24.208748,16.78816,25.995031,17.01646,27.916431z"/>
	<path fill="#333333" d="M7.808084,23.742863c0.341398,3.006229,0.638101,6.018385,1.035439,9.017204
		c0.503426,3.799469,3.136366,5.665306,6.886039,4.970924c0.096677-0.017906,0.199568-0.002262,0.290262-0.002262
		c0.039677,0.0891,0.100304,0.157192,0.088179,0.207867c-0.424979,1.775845-0.426348,1.776268,1.201591,2.783028
		c1.83194,1.132931,3.656902,2.277424,5.499577,3.392635c1.475725,0.893124,2.172863,2.163486,2.016739,3.892406
		c-0.36517,4.043915-0.70396,8.090378-1.098969,12.131367c-0.211397,2.162613-2.052628,3.700356-4.049421,3.480152
		c-2.173201-0.239651-3.619776-1.966061-3.437622-4.190041c0.236319-2.885311,0.492338-5.769947,0.809772-8.647167
		c0.106945-0.96936-0.115318-1.61919-1.036493-2.021233c-0.474697-0.20718-0.901804-0.523399-1.529534-0.896931
		c0.094447,0.460621,0.125276,0.721622,0.202355,0.968159c0.37623,1.203381,0.167295,2.318924-0.562377,3.315327
		c-2.441209,3.33358-4.880453,6.669113-7.368541,9.967625c-1.280849,1.698051-3.525385,2.000595-5.189831,0.804989
		c-1.678099-1.20541-2.085883-3.52182-0.836807-5.269978c1.785914-2.499493,3.61727-4.967518,5.477624-7.41214
		c0.482535-0.634083,0.572888-1.157715,0.295127-1.919277c-1.075906-2.94989-2.095145-5.921238-3.08606-8.901031
		c-0.541355-1.627914-0.426911-3.231606,0.19753-4.863487c1.372808-3.587622,2.642037-7.214878,3.953547-10.825958
		C7.646835,23.730982,7.72746,23.736923,7.808084,23.742863z"/>
	<path fill="#333333" d="M51.234886,39.618893c3.179764-0.000191,6.359543-0.00703,9.53928,0.002209
		c2.122822,0.006172,3.206703,1.082321,3.216373,3.192734c0.011177,2.437763,0.014511,4.875698-0.001469,7.313412
		c-0.012993,1.982437-1.108147,3.117004-3.08242,3.122723c-6.500793,0.018829-13.001694,0.018154-19.502487-0.000336
		c-1.913208-0.005444-3.021748-1.119812-3.046043-3.043118c-0.031685-2.508072-0.030876-5.01712-0.000919-7.525234
		c0.023792-1.991589,1.121231-3.0508,3.126434-3.058739C44.734005,39.609676,47.984467,39.619083,51.234886,39.618893z"/>
	<path fill="#333333" d="M44.43499,35.652939c-1.72942,0.000191-3.458931,0.011288-5.188232-0.002674
		c-2.074558-0.016743-3.16526-1.064987-3.189621-3.103428c-0.02615-2.187923-0.026257-4.376648-0.000141-6.564575
		c0.023422-1.962545,1.030632-3.053535,2.990582-3.083549c3.599113-0.055115,7.20023-0.05479,10.799389-0.001759
		c1.943039,0.028631,2.967052,1.163925,2.974228,3.096563c0.008137,2.188215,0.008953,4.376509-0.000065,6.564714
		c-0.008057,1.956692-1.115913,3.07-3.092045,3.090649C47.964565,35.667316,46.199703,35.652752,44.43499,35.652939z"/>
	<path fill="#333333" d="M18.587748,13.687783c-3.724852-0.004745-6.652163-2.933759-6.649543-6.653412
		c0.002592-3.679339,3.004399-6.681627,6.672477-6.673543c3.672289,0.008092,6.652689,3.009002,6.651356,6.697124
		C25.260696,10.763426,22.311956,13.692529,18.587748,13.687783z"/>
	<path fill="#333333" d="M10.016773,18.3685c2.335512-3.617439,8.281086-3.197923,10.479185,0.721397
		c0.371235,0.661924,0.625412,1.425232,0.76754,2.173265c0.438566,2.30822,0.085712,2.80176-2.348391,3.401747
		c-0.100784-0.725309-0.194805-1.439255-0.299822-2.151579c-0.640268-4.342863-4.420101-6.27594-8.292459-4.244421
		C10.241151,18.311758,10.145288,18.327568,10.016773,18.3685z"/>
</g>
</svg>
