<?xml version="1.0" encoding="utf-8"?>
<!-- Generator: Adobe Illustrator 22.1.0, SVG Export Plug-In . SVG Version: 6.00 Build 0)  -->
<svg version="1.1" id="Layer_1" xmlns="http://www.w3.org/2000/svg" xmlns:xlink="http://www.w3.org/1999/xlink" x="0px" y="0px"
	 viewBox="0 0 64 64" style="enable-background:new 0 0 64 64;" xml:space="preserve">
<style type="text/css">
	.st0{fill:#333333;}
</style>
<g>
	<path class="st0" d="M4.3163,16.1905c-0.7885,0.4254-1.4713,0.8139-2.1725,1.1661c-0.6512,0.327-1.4368,0.1143-1.8593-0.464
		c-0.4223-0.578-0.3717-1.3997,0.1329-1.9089c0.129-0.1302,0.2881-0.239,0.4502-0.3266C9.6161,9.9277,18.367,5.2029,27.1146,0.4721
		c0.5553-0.3003,1.0765-0.3,1.6304-0.0004c8.7356,4.7246,17.474,9.4442,26.2117,14.1649c0.8411,0.4544,1.1346,1.3091,0.7166,2.0884
		c-0.4074,0.7596-1.3079,0.99-2.145,0.5426c-0.6331-0.3384-1.2621-0.6847-1.991-1.0809c0,0.2288,0,0.3774,0,0.5261
		c-0.0001,3.0952,0.0047,6.1905-0.0032,9.2857c-0.0023,0.9015-0.5674,1.526-1.374,1.5675
		c-0.9219,0.0475-1.5942-0.5895-1.6023-1.5499c-0.0125-1.4808-0.0062-2.9618-0.0078-4.4428c-0.0002-0.159,0-0.318,0-0.5181
		c-13.7443,0-27.4621,0-41.2428,0c0,0.1635,0,0.3302,0,0.4968C7.3059,29.8374,7.3049,38.1227,7.3028,46.408
		c-0.0002,0.9272-0.5699,1.5928-1.3983,1.6436c-0.8866,0.0543-1.5814-0.5998-1.5856-1.5228
		c-0.0096-2.0946-0.0067-4.1893-0.007-6.2839c-0.0006-4.8295-0.0005-9.659,0.0003-14.4885
		c0.0005-3.0018,0.0027-6.0037,0.0041-9.0055C4.3164,16.5957,4.3163,16.4406,4.3163,16.1905z M7.3368,15.9512
		c0,0.7058,0,1.3765,0,2.044c13.7505,0,27.4681,0,41.1892,0c0-0.698,0-1.3588,0-2.044
		C34.7892,15.9512,21.0808,15.9512,7.3368,15.9512z"/>
	<path class="st0" d="M16.1915,47.9724c-1.0007,0.0001-2.0013,0.0024-3.002-0.0005c-0.9034-0.0026-1.3838-0.4715-1.3868-1.3827
		c-0.0067-2.068-0.0047-4.1361,0.0031-6.2041c0.0029-0.7677,0.4796-1.247,1.2559-1.2505c2.0946-0.0094,4.1893-0.0098,6.2839-0.0008
		c0.8393,0.0036,1.303,0.4763,1.3085,1.3288c0.0098,1.5075,0.0017,3.0152,0.001,4.5228c-0.0002,0.547-0.0003,1.094-0.0012,1.641
		c-0.0014,0.8496-0.4919,1.3438-1.3405,1.3455C18.2729,47.9738,17.2322,47.9723,16.1915,47.9724z"/>
	<path class="st0" d="M14.6388,28.8206c1.0539,0.0001,2.1079-0.0053,3.1617,0.0018c0.8112,0.0054,1.2807,0.4858,1.2819,1.3053
		c0.003,2.0678,0.0029,4.1357,0.0001,6.2035c-0.0011,0.8296-0.4826,1.3157-1.3174,1.3179
		c-2.0811,0.0053-4.1623,0.0051-6.2434-0.0001c-0.8021-0.002-1.2677-0.4639-1.2704-1.2703
		c-0.0071-2.0944-0.0069-4.1889-0.0001-6.2834c0.0027-0.8233,0.4703-1.271,1.3059-1.2739
		C12.5843,28.8178,13.6116,28.8205,14.6388,28.8206z"/>
	<path class="st0" d="M25.8888,23.4456c1.0539,0.0001,2.1079-0.0053,3.1617,0.0018c0.8112,0.0054,1.2807,0.4858,1.2819,1.3053
		c0.003,2.0678,0.0029,4.1357,0.0001,6.2035c-0.0011,0.8296-0.4826,1.3157-1.3174,1.3179
		c-2.0811,0.0053-4.1623,0.0051-6.2434-0.0001c-0.8021-0.002-1.2677-0.4639-1.2704-1.2703
		c-0.0071-2.0944-0.0069-4.1889-0.0001-6.2834c0.0027-0.8233,0.4703-1.271,1.3059-1.2739
		C23.8343,23.4428,24.8616,23.4455,25.8888,23.4456z"/>
	<g>
		<path class="st0" d="M22.2368,46.5755c0-3.4478-0.0005-6.8956,0.0004-10.3434c0.0002-0.8067,0.1744-0.9789,0.975-0.979
			c6.6251-0.0012,13.2503-0.0035,19.8754-0.0022c0.4412,0.0001,0.8875-0.0116,1.3227,0.0471
			c1.6221,0.219,2.6826,1.2506,2.9921,2.8984c0.0705,0.3754,0.1079,0.7627,0.1084,1.1446
			c0.0067,5.8842,0.0049,11.7684,0.0046,17.6527c0,0.7586-0.1983,0.9579-0.9628,0.9581c-3.6758,0.0013-7.3517-0.0052-11.0275,0.0079
			c-0.4587,0.0016-0.7286-0.1675-0.949-0.5652c-1.001-1.8061-2.5422-2.8049-4.6142-2.7853
			c-2.0689,0.0196-3.5957,1.0369-4.5717,2.8587c-0.1852,0.3457-0.4305,0.4972-0.8184,0.4834
			c-0.4981-0.0177-0.9972-0.0027-1.4959-0.0047c-0.6076-0.0024-0.8343-0.2124-0.8364-0.814
			c-0.0075-2.1371-0.0068-4.2742-0.0082-6.4113c-0.0009-1.382-0.0002-2.7639-0.0002-4.1459
			C22.233,46.5756,22.2349,46.5755,22.2368,46.5755z"/>
		<path class="st0" d="M49.5429,49.7237c0-2.4362-0.0002-4.8724,0.0001-7.3086c0.0001-0.7393,0.1859-0.9185,0.9408-0.9187
			c2.1513-0.0005,4.3026,0.007,6.4537-0.0111c0.4461-0.0037,0.739,0.1459,0.9965,0.5115c1.9271,2.7359,3.8749,5.4572,5.7996,8.1947
			c0.1518,0.216,0.2486,0.5196,0.2514,0.7837c0.0213,2.0229,0.014,4.046,0.013,6.0691c-0.0003,0.6792-0.2202,0.9037-0.8868,0.9056
			c-0.7408,0.0022-1.4817-0.0105-2.2224-0.0012c-0.3706,0.0046-0.5995-0.1484-0.7763-0.4785
			c-0.9841-1.8375-2.5216-2.8537-4.6122-2.8607c-2.058-0.0069-3.5736,0.9966-4.5774,2.7779
			c-0.1776,0.3151-0.361,0.5861-0.7737,0.5556c-0.3849-0.0284-0.6042-0.3035-0.6049-0.7824
			c-0.0033-2.1655-0.0025-4.331-0.0031-6.4966c-0.0001-0.3134,0-0.6269,0-0.9403C49.5418,49.7237,49.5424,49.7237,49.5429,49.7237z"
			/>
		<path class="st0" d="M33.8426,60.1596C33.8414,62.2708,32.121,64.0009,30.0237,64c-2.1418-0.0009-3.8584-1.7124-3.8588-3.8473
			c-0.0004-2.1233,1.7367-3.8523,3.8662-3.8481C32.1218,56.3087,33.8437,58.0502,33.8426,60.1596z"/>
		<path class="st0" d="M59.3293,60.1426c0.0052,2.1631-1.697,3.8525-3.8854,3.8561c-2.0574,0.0034-3.7783-1.7374-3.7857-3.8296
			c-0.0074-2.1067,1.7245-3.8665,3.8013-3.8625C57.6133,56.3109,59.3242,58.0069,59.3293,60.1426z"/>
	</g>
</g>
</svg>
